<svg width="1600" height="900" viewBox="0 0 1600 900" xmlns="http://www.w3.org/2000/svg">
  <defs><linearGradient id="g" x1="0" y1="0" x2="1" y2="1"><stop stop-color="#1ec8ff" stop-opacity=".24"/><stop offset="1" stop-color="#5268ff" stop-opacity=".04"/></linearGradient></defs>
  <g fill="none" stroke="url(#g)" stroke-width="1">
    <path d="M-80 170L280 40L610 205L960 35L1300 190L1680 40"/>
    <path d="M-70 440L260 300L590 455L940 290L1280 450L1680 290"/>
    <path d="M-70 710L270 570L600 725L950 560L1290 720L1680 560"/>
    <path d="M280 40V300M610 205V455M960 35V290M1300 190V450M260 300V570M590 455V725M940 290V560M1280 450V720"/>
  </g>
  <g fill="#28c8f8" fill-opacity=".22"><circle cx="280" cy="40" r="4"/><circle cx="610" cy="205" r="4"/><circle cx="960" cy="35" r="4"/><circle cx="1300" cy="190" r="4"/><circle cx="260" cy="300" r="4"/><circle cx="590" cy="455" r="4"/><circle cx="940" cy="290" r="4"/><circle cx="1280" cy="450" r="4"/></g>
</svg>
